<?xml version="1.0" encoding="utf-8"?>
<!-- Generator: Adobe Illustrator 19.0.0, SVG Export Plug-In . SVG Version: 6.00 Build 0)  -->
<!DOCTYPE svg PUBLIC "-//W3C//DTD SVG 1.1//EN" "http://www.w3.org/Graphics/SVG/1.1/DTD/svg11.dtd">
<svg version="1.1" id="Layer_1" xmlns="http://www.w3.org/2000/svg" xmlns:xlink="http://www.w3.org/1999/xlink" x="0px" y="0px"
	 viewBox="0 0 481 254" style="enable-background:new 0 0 481 254;" xml:space="preserve">
<style type="text/css">
	.st0{fill:#FFFFFF;}
</style>
<g>
	<path class="st0" d="M151.4,59.9l12.9-31.6l12.9,31.6h-4.7l-0.9-2.5h-14.4l-1,2.5H151.4z M158.6,53.4h11.3l-5.6-14.5L158.6,53.4z"
		/>
	<path class="st0" d="M201.5,55.5h12.9V60h-17.5V28.3h4.6V55.5z"/>
	<path class="st0" d="M238.8,55.5h12.9V60h-17.5V28.3h4.6V55.5z"/>
	<path class="st0" d="M276,55.3H290v4.5h-18.6V28.4h18.3v4.4H276v5v2.6v3.1h12.4v4.3H276V55.3z"/>
	<path class="st0" d="M314.1,60h-4.4V27.8l20.4,24.4V28.4h4.4V60h-4.2l-16.2-20V60z"/>
</g>
<g>
	<path class="st0" d="M170.5,200.5c0,0.3,0,0.6,0,0.9c0,0.4,0,0.8,0,1.2c0,0.4-0.1,0.7-0.1,1.1c-0.3,1.9-0.8,3.7-1.7,5.3
		s-2,3.1-3.4,4.3c-1.4,1.2-2.9,2.2-4.7,2.8c-1.8,0.7-3.6,1-5.6,1c-2.2,0-4.2-0.4-6.1-1.3c-1.9-0.8-3.6-2-5-3.4
		c-1.4-1.4-2.5-3.1-3.3-5c-0.8-1.9-1.2-4-1.2-6.1c0-2.2,0.4-4.2,1.2-6.1c0.8-1.9,1.9-3.6,3.3-5c1.4-1.4,3.1-2.6,5-3.4
		c1.9-0.8,3.9-1.2,6.1-1.2c1.6,0,3.2,0.2,4.7,0.7c1.5,0.5,2.8,1.1,4.1,2c1.2,0.9,2.3,1.9,3.3,3.1c1,1.2,1.7,2.5,2.3,3.9H164
		c-0.9-1.6-2.2-2.9-3.8-3.9c-1.6-1-3.4-1.5-5.3-1.5c-1.5,0-2.9,0.3-4.2,0.9c-1.3,0.6-2.5,1.4-3.4,2.5c-1,1-1.8,2.2-2.3,3.6
		c-0.6,1.4-0.9,2.9-0.9,4.4s0.3,3.1,0.9,4.4c0.6,1.4,1.4,2.6,2.3,3.6c1,1,2.1,1.9,3.4,2.5c1.3,0.6,2.7,0.9,4.2,0.9
		c1.3,0,2.5-0.2,3.7-0.7c1.2-0.5,2.2-1.1,3.2-1.9c0.9-0.8,1.7-1.8,2.4-2.9c0.6-1.1,1.1-2.3,1.4-3.6h-11v-4.1h11.1h4.8
		C170.5,199.9,170.5,200.2,170.5,200.5z"/>
	<path class="st0" d="M212,199.8c-0.4,1.3-1,2.5-1.8,3.5c-0.8,1-1.8,1.9-2.9,2.6c-0.1,0.1-0.1,0.1-0.2,0.1c-0.1,0-0.2,0.1-0.2,0.1
		l5.6,11h-4.9l-4.9-9.5c-0.3,0.1-0.7,0.1-1,0.1c-0.3,0-0.7,0-1.1,0h-5.6v9.4h-4.6v-31.7h10.3c1.3,0,2.5,0.2,3.6,0.5
		c1.1,0.3,2.2,0.8,3.1,1.4c2.3,1.5,3.9,3.5,4.7,6.2c0,0.1,0.1,0.3,0.1,0.4c0,0.1,0.1,0.2,0.1,0.4v0.2c0.1,0.1,0.1,0.3,0.1,0.5
		c0,0.2,0,0.3,0.1,0.5v0c0,0.2,0,0.3,0,0.5c0,0.2,0,0.4,0,0.6v0v0.1c0,0.2,0,0.3,0,0.5c0,0.2,0,0.3,0,0.5v0.1c0,0.2,0,0.3-0.1,0.5
		c0,0.2,0,0.3-0.1,0.5v0.2C212.1,199.3,212,199.6,212,199.8z M201.1,203.7c0.9,0,1.8-0.2,2.6-0.6c0.8-0.4,1.5-0.9,2-1.6
		c0.6-0.7,1-1.4,1.4-2.3c0.3-0.8,0.5-1.7,0.5-2.7c0-0.9-0.2-1.8-0.5-2.6c-0.3-0.9-0.8-1.6-1.4-2.3c-0.6-0.6-1.3-1.2-2-1.6
		c-0.8-0.4-1.7-0.6-2.6-0.6h-6.2v14.2H201.1z"/>
	<path class="st0" d="M247.9,185.4c2.2,0,4.2,0.4,6.2,1.3c1.9,0.8,3.6,2,5,3.4c1.4,1.4,2.5,3.1,3.4,5.1c0.8,1.9,1.2,4,1.2,6.2
		c0,2.2-0.4,4.2-1.2,6.2c-0.8,1.9-1.9,3.6-3.4,5c-1.4,1.4-3.1,2.6-5,3.4c-1.9,0.8-4,1.2-6.2,1.2c-2.2,0-4.2-0.4-6.1-1.2
		c-1.9-0.8-3.6-2-5-3.4c-1.4-1.4-2.5-3.1-3.4-5c-0.8-1.9-1.2-4-1.2-6.2c0-2.2,0.4-4.3,1.2-6.2c0.8-1.9,1.9-3.6,3.4-5.1
		c1.4-1.4,3.1-2.6,5-3.4S245.7,185.4,247.9,185.4z M247.9,212.7c1.5,0,2.9-0.3,4.2-0.9c1.3-0.6,2.5-1.4,3.5-2.4s1.8-2.2,2.3-3.6
		c0.6-1.4,0.9-2.9,0.9-4.4s-0.3-3.1-0.9-4.5c-0.6-1.4-1.4-2.6-2.3-3.7s-2.2-1.9-3.5-2.5c-1.3-0.6-2.8-0.9-4.2-0.9
		c-1.5,0-2.9,0.3-4.2,0.9c-1.3,0.6-2.5,1.4-3.5,2.5c-1,1-1.8,2.3-2.3,3.7c-0.6,1.4-0.9,2.9-0.9,4.5s0.3,3.1,0.9,4.4
		c0.6,1.4,1.4,2.6,2.3,3.6c1,1,2.1,1.8,3.5,2.4C245,212.4,246.4,212.7,247.9,212.7z"/>
	<path class="st0" d="M300.2,185.5h4.5v21.1c0,1.5-0.3,2.8-0.8,4.1c-0.6,1.3-1.3,2.4-2.3,3.3c-1,0.9-2.1,1.7-3.4,2.2
		c-1.3,0.5-2.7,0.8-4.2,0.8c-1.5,0-2.8-0.3-4.1-0.8c-1.3-0.5-2.4-1.3-3.4-2.2c-1-0.9-1.7-2-2.3-3.3c-0.5-1.3-0.8-2.6-0.8-4.1v-21.1
		h4.5v21.1c0,0.8,0.2,1.6,0.5,2.3c0.3,0.7,0.7,1.4,1.3,1.9c0.5,0.6,1.2,1,1.9,1.3c0.7,0.3,1.5,0.5,2.4,0.5c0.9,0,1.7-0.2,2.4-0.5
		c0.7-0.3,1.4-0.8,2-1.3c0.6-0.6,1-1.2,1.3-1.9c0.3-0.7,0.5-1.5,0.5-2.3V185.5z"/>
	<path class="st0" d="M346.6,195.5c0,0.2,0,0.3,0.1,0.5c0,0.2,0,0.4,0,0.6v0v0c0,0.2,0,0.4,0,0.6c0,0.2,0,0.3-0.1,0.5v0l-0.1,1
		c0,0,0,0.1,0,0.2c0,0.1-0.1,0.3-0.1,0.4c0,0.1-0.1,0.2-0.1,0.4c-0.4,1.3-1,2.5-1.8,3.5c-0.8,1-1.7,1.9-2.9,2.6
		c-0.9,0.6-2,1-3.1,1.4c-1.2,0.3-2.4,0.5-3.7,0.5h-5.6v9.4h-4.6v-31.7h10.3c2.6,0,4.9,0.6,6.8,1.9c1.1,0.7,2.1,1.6,2.9,2.6
		c0.8,1,1.4,2.2,1.8,3.5c0.1,0.3,0.2,0.6,0.2,0.8c0,0.1,0,0.1,0,0.2c0,0.2,0,0.3,0.1,0.5C346.5,195.1,346.6,195.3,346.6,195.5
		L346.6,195.5z M335.3,203.7c0.9,0,1.8-0.2,2.6-0.6c0.8-0.4,1.5-0.9,2.1-1.6c0.6-0.7,1-1.4,1.4-2.3c0.3-0.8,0.5-1.7,0.5-2.7
		c0-0.9-0.2-1.8-0.5-2.7c-0.3-0.8-0.8-1.6-1.4-2.3c-0.6-0.7-1.3-1.2-2.1-1.6c-0.8-0.4-1.7-0.6-2.6-0.6h-6.2v14.2H335.3z"/>
</g>
<path class="st0" d="M23.9,80.3h12.1V163H23.9V80.3z"/>
<path class="st0" d="M132.9,80.3l15.3,82.8H136l-8-45.9l-22.2,47.4l-22.1-47.4l-8,45.9H63.3l15.3-82.8l27.1,57L132.9,80.3z"/>
<path class="st0" d="M228.8,106.5c0.1,0.5,0.1,0.9,0.2,1.4s0.1,0.9,0.1,1.5v0.1v0.1c0,0.5,0,1-0.1,1.5c0,0.5-0.1,0.9-0.2,1.4v0.1
	l-0.3,2.7c-0.1,0.1-0.1,0.2-0.1,0.5c-0.1,0.4-0.2,0.7-0.2,1c-0.1,0.3-0.2,0.6-0.3,1c-1.1,3.5-2.6,6.5-4.7,9.2
	c-2.1,2.7-4.6,5-7.5,6.9c-2.5,1.5-5.2,2.7-8.2,3.6c-3,0.9-6.2,1.3-9.6,1.3H183v24.5h-12.1V80.2h26.8c6.8,0,12.7,1.6,17.8,4.9
	c2.9,1.9,5.4,4.2,7.5,6.9c2.1,2.7,3.6,5.8,4.7,9.1c0.3,0.8,0.5,1.5,0.6,2.1c0,0.2,0,0.4,0.1,0.5c0.1,0.5,0.1,0.9,0.2,1.4
	c0,0.5,0.1,0.9,0.2,1.2V106.5z M199.2,128c2.5,0,4.8-0.5,6.8-1.6c2.1-1.1,3.9-2.4,5.4-4.2c1.5-1.7,2.7-3.7,3.6-5.9
	c0.9-2.2,1.3-4.5,1.3-6.9c0-2.4-0.4-4.7-1.3-6.9c-0.9-2.2-2.1-4.2-3.6-5.9c-1.5-1.7-3.3-3.1-5.4-4.2c-2.1-1.1-4.3-1.6-6.8-1.6h-16.1
	V128H199.2z"/>
<path class="st0" d="M360.1,151.6c4.8,0,9.2-1.1,13.3-3.4s7.3-5.4,9.9-9.2l9.8,7.3c-3.8,5.1-8.5,9.2-14.2,12.2
	c-5.7,3-11.9,4.5-18.8,4.5c-5.6,0-10.9-1.1-15.9-3.3c-5-2.2-9.3-5.1-13-8.9s-6.6-8.1-8.7-13.1c-2.1-5-3.2-10.4-3.2-16.1
	s1.1-11.1,3.2-16.1c2.1-5,5.1-9.4,8.7-13.1s8-6.7,13-8.9c5-2.2,10.3-3.3,15.9-3.3c6.8,0,13.1,1.5,18.8,4.5c5.7,3,10.4,7.1,14.2,12.2
	l-9.8,7.3c-2.6-3.8-5.8-6.9-9.9-9.2c-4-2.3-8.4-3.4-13.3-3.4c-3.9,0-7.6,0.8-11,2.4c-3.4,1.6-6.4,3.7-9,6.4
	c-2.6,2.7-4.6,5.9-6.1,9.5c-1.5,3.6-2.3,7.5-2.3,11.6s0.8,8,2.3,11.6c1.5,3.6,3.5,6.8,6.1,9.5c2.6,2.7,5.5,4.8,9,6.4
	C352.5,150.8,356.2,151.6,360.1,151.6z"/>
<path class="st0" d="M409.3,80.3h52.8v11.6h-20.4v71h-12v-71h-20.4V80.3z"/>
<path class="st0" d="M243.4,162.8l32.3-82.6l32.4,82.6H243.4z M259.8,152.2h32l-16-44.4L259.8,152.2z"/>
</svg>
