<?xml version="1.0" encoding="utf-8"?>
<!-- Generator: Adobe Illustrator 19.0.0, SVG Export Plug-In . SVG Version: 6.00 Build 0)  -->
<!DOCTYPE svg PUBLIC "-//W3C//DTD SVG 1.1//EN" "http://www.w3.org/Graphics/SVG/1.1/DTD/svg11.dtd">
<svg version="1.1" id="Layer_1" xmlns="http://www.w3.org/2000/svg" xmlns:xlink="http://www.w3.org/1999/xlink" x="0px" y="0px"
	 viewBox="-79 353 480 272" style="enable-background:new -79 353 480 272;" xml:space="preserve">
<style type="text/css">
	.st0{fill:#FFFFFF;}
	.st1{display:none;}
	.st2{display:inline;}
	.st3{stroke:#0079E9;stroke-width:1.000000e-02;stroke-miterlimit:10;}
</style>
<g>
	<path class="st0" d="M380.9,565.7c0,0-34,8.2-44.6,10.6c-1.9,0-2.4,0-2.9-0.5c-1.5-1.4-2.9-4.8-2.9-6.2l-22-99.4l7.6-1.4l-2.9-11
		l-7.1,1.6l-11.6-52.5l55.2-13.9l-2.9-10.6L281,399.2l2.4,11l-27.3,7.2l0.7,2.7c-6-2.4-13.9-5.5-22-8.7l-3.3-12.7
		c-1-2.4-2.4-9.1-5.3-12c-3.3-3.8-9.6-4.8-11.5-4.8l-47.5-3.8c-0.9,0-8.6-1-13.4,0s-13.4,6.3-15.8,7.7l-41.8,25.9
		c-0.9,0.5-9.6,5.3-13.4,7.2c-1.7,0.8-3.5,0.9-4.9,0.8l0.5-1.8l-27.7-7.3l2.8-12.4L-15.1,380l-2.9,10.6l58.5,15.8l-36,162.7v0.5
		c0,1.4-1,4.8-2.9,6.2c-0.5,0.5-1.5,1-2.9,0.5c-10.6-2.4-47.5-12-48-12l-2.9,10.6c1.9,0.5,37.9,10.1,48.5,12.5
		c1,0.5,2.4,0.5,3.4,0.5c2.9,0,5.8-1,7.7-3.4c5.8-3.8,7.2-11.5,7.7-13.4l4.3-19.2l27.8,8.6l2-5.8c0.3-0.2,1.7-5.3,2.9-13.3
		c3.6,1.5,6.8,2.7,9.2,3.7c-1.3,6.2-0.5,14.4,7.5,18.8c2.4,1.4,4.8,1.9,7.2,1.9c1,0,1.9-0.1,2.8-0.3c0.6,5.5,3.2,10.9,9.3,14.2
		c2.8,1.4,5.7,2.4,8.6,2.4c1.9,0,3.6-0.3,5.2-0.9c0.4,5.8,2.8,11.6,8.7,15.8c3.8,2.4,7.7,3.8,11.5,3.8c3.1,0,5.8-0.7,8.2-1.9
		c1.2,4.5,3.9,8.8,9.6,11.1c1.9,0.9,4.3,1.4,6.2,1.4c6.7,0,11.6-4.4,14.3-8.5c4.7,1.4,11.6,3.2,16.9,3.2c1,0,1.5,0,2.3-1.1
		c5.1-0.6,9.7-4.5,12.7-7.7c4,2,8.1,3.4,11.9,3.5c8.5,0,15.5-8,18.9-12.5c1.3,0.3,2.7,0.5,4.1,0.5c0.5,0,1.5,0,2.4-0.5
		c7.2-0.9,12.5-4.8,16.3-11.5c1.3-2.3,2.1-4.7,2.6-6.9c0.8,0.1,1.6,0.2,2.3,0.2c0.4,0,0.9,0,1.6,0.4c7.6-1,13.9-4.3,18.2-9.6
		c4.9-6.2,6.5-13.5,6-19.1c0.3,0,0.7,0,1,0c1.9,0,3.8-0.2,5.5-0.3c1.3,8,2.7,13.2,2.7,13.7l1.4,5.3l27.8-8l4.4,19.6
		c0,1.4,1.9,9.6,7.7,13.4c1.9,1.4,4.8,2.4,7.7,2.4c0.9,0,2.4-0.5,3.4-0.6c10.5-2.4,44.6-10.6,45.1-10.6L380.9,565.7z M285.8,420.9
		l12.3,55.3c-2.5,2.6-5.7,6.1-8.5,10.5c-1.5-2.1-3.4-5.9-5.7-12.3c-4.3-12.4-11-38.4-13.9-49.4L285.8,420.9z M48.4,421.4l16.1,4.2
		c-2.9,11-9.6,36.9-13.9,49.4c-1.9,5.5-3.7,9-5.2,11.3c-3.1-4.8-6.4-8.6-9-11.2L48.4,421.4z M39.6,546l-17.8-5.1l11.6-52.3
		c4.3,5.8,8.8,14,9.1,23.8C43,526.3,41,539.3,39.6,546z M74.6,553.8c-2.4-1-2.9-3.9-2.4-5.8c1,0.5,1.9,1,3.8,1.5
		c1.5,1,2.4,1.9,3.4,2.9c-1,0.9-1.9,1.9-2.9,1.9C76,554.3,75.1,554.3,74.6,553.8z M96.8,570.6c-1,0-2.4-0.5-3.4-1
		c-4.4-2.4-4.4-7.6-3.4-11c1.9,0.5,4.8,1.4,7.2,2.9c2.9,1.9,4.8,3.9,5.8,5.3C101.6,568.7,99.2,570.6,96.8,570.6z M116.8,587.4
		c-1.9-1.4-4.8-4.3-3.8-11c0.4-1.9,0.9-3.4,1.4-4.8c2.4,0.9,5.8,2.4,9.1,4.3c3.8,3.8,6.2,6.7,7.2,8.6c-1.9,1.9-5.2,4.8-8.6,4.8
		C120.2,589.3,118.7,588.8,116.8,587.4z M146.1,600.4c-0.5,0-0.9,0-1.9-0.5c-3.4-1.5-3.4-4.8-3.4-7.7c1.5,0,3.4,0.5,4.8,1.4
		c2.4,1,3.8,2.4,4.8,3.4C149.5,599,148,600.4,146.1,600.4z M261.9,553.7c-2.4,2.9-5.8,4.8-10.6,5.3c-2.4,0-7.2-0.9-14.9-8.6
		c-4.8-4.3-17.8-19.6-22.1-25.4l-8.6,7.2c0.9,1,16.8,20.6,23,26.4c2.5,2.3,5.8,5.1,9.4,7.3c-0.3,1.9-1,4.3-1.7,5.6
		c-2,3.8-4.4,5.7-8.2,6.2c-3.4,0.5-8.2-2.9-10.1-4.3l-24-21.6l-7.7,8.2l24,21.6c0.3,0.1,1.1,0.8,2.4,1.7c-2.8,3-6.1,5.9-8.5,5.9
		c-7.7,0-20.7-11-27.4-18.2l-8.2,7.7c1,1.3,6.7,7.3,14.1,12.7c-1.7,1.6-3.4,2.8-4.6,3.1c-2.8,0.5-11.2-1.2-17.8-3.5
		c-1.7-2-4.7-4.6-9.3-7c-3.2-1.6-6.4-2.4-9.1-2.7c-1.2-3-4.2-8.1-10.7-13.6c-8.7-7.2-19.2-8.2-19.7-8.2h-1.5c-1.7-1.9-4-4.1-7.1-6.2
		c-5.2-3.7-10.9-4.8-14.2-5.2c-1.4-1.9-3.7-4.4-7.1-6.8c-4.3-3.2-9.1-4-12-4.2l0.1-0.2c0,0-7.3-3-16.4-7.1
		c0.4-5.3,0.7-11.1,0.6-17.3c-0.2-5.6-1.4-10.7-3.1-15.3c3-2.8,6.6-8.1,10.3-18.3c4.2-12.3,10.4-35.5,13.7-47.8
		c1,0.2,2.2,0.3,3.5,0.3c2.9,0,6.3-0.5,9.2-1.9c4.3-1.9,13.9-7.7,14.4-7.7l42.2-26.3c4.3-3.3,10.1-5.7,11.5-6.2
		c2.4-0.5,7.7,0,10.6,0l47,3.8c1.4,0.4,3.8,0.9,4.3,1.4c1,0.9,1.9,3.8,2.4,6.7l1.2,4.8c-11.9-4.7-22.6-8.9-27.1-10.6
		c-12-4.8-20.7-1-24.5,2.4c-3.9,2.4-32.2,21.1-39.4,27.8c-8.6,8.2-11,27.8-11.5,31.2c-0.5,1.4-2,11-3.4,24
		c-1.5,13.9-1.5,20.2,11,22.1c8.7,1.5,24-1.9,29.3-13.4c4.8-9.6,8.7-19.7,10.6-25c3.4-0.4,8.2-1.4,13-3.8c2.9-1.4,5.3-2.9,7.2-4.3
		c24,25.5,58.9,61.6,74.7,76.6l-0.1,0.1c3.3,3.3,3.8,4.8,4.3,8.6C265.7,544.6,264.8,549.9,261.9,553.7z M275.5,531.3
		c-0.9-0.6-2.6-2.3-5.1-4.7c-0.4-0.4-0.8-0.8-1.2-1.2l0,0c-15.4-15-52.9-54.1-77.7-79.5l-4.8-5.8l-3.8,6.2c-0.5,0.5-2.4,2.9-7.7,5.8
		c-5.3,2.4-12.5,2.9-12.5,2.9h-3.8l-1.4,3.4c0,0-5.2,14.9-11,27.4c-2.9,5.8-12.5,8.2-17.8,7.2c-1,0-1.9-0.5-2.4-0.5
		c-0.5-1.9,0-7.2,0.5-9.6c1-13.9,2.9-23.5,2.9-23.5v-0.5c1-6.3,3.9-20.2,8.2-24.5c5.7-5.3,29.3-21.1,37.9-26.9h0.5l0.5-0.5
		c0.5-0.5,4.8-3.4,13-0.5c10.4,3.7,57.6,22.1,70.6,27.4c3.4,12.7,9,33.2,12.9,44.5c3.7,10.9,7.7,16.5,10.7,19.2
		c-1.8,4.6-2.9,9.8-3,15.4c-0.1,6.7,0.2,13,0.8,18.7C279.2,532,276.7,531.9,275.5,531.3z M295.4,546.5c-1.5-6.7-3.4-19.7-2.9-33.6
		c0.2-9.4,4.4-17.4,8.6-23.2l11.5,51.8L295.4,546.5z"/>
	<polygon class="st0" points="365.5,455.9 362.6,444.9 354.4,446.8 357.3,457.8 	"/>
	<polygon class="st0" points="321.8,455.4 324.2,466 332.9,464.5 330,453.5 	"/>
	<polygon class="st0" points="345.8,449.2 337.6,451.1 340.5,462.1 348.7,460.2 	"/>
	<polygon class="st0" points="-32.9,527.9 -41.1,526 -43.5,537 -35.3,538.9 	"/>
	<polygon class="st0" points="-16.6,531.8 -24.8,529.9 -27.2,540.9 -19,542.8 	"/>
	<polygon class="st0" points="-8,533.7 -10.4,544.7 -2.2,546.6 0.2,535.6 	"/>
	<path class="st0" d="M349.6,551.9c10.6,0,19.2-8.6,19.2-19.2c0-10.6-8.6-19.2-19.2-19.2c-10.6,0-19.2,8.6-19.2,19.2
		C330.4,543.3,339,551.9,349.6,551.9z M349.6,525c4.4,0,7.7,3.4,7.7,7.7c0,4.3-3.4,7.7-7.7,7.7c-4.3,0-7.7-3.4-7.7-7.7
		C341.9,528.4,345.3,525,349.6,525z"/>
</g>
<g class="st1">
	<g class="st2">
		<rect x="-79" y="249" class="st3" width="120" height="120"/>
		<rect x="41" y="249" class="st3" width="120" height="120"/>
		<rect x="161" y="249" class="st3" width="120" height="120"/>
		<rect x="281" y="249" class="st3" width="120" height="120"/>
		<rect x="-79" y="369" class="st3" width="120" height="120"/>
		<rect x="41" y="369" class="st3" width="120" height="120"/>
		<rect x="161" y="369" class="st3" width="120" height="120"/>
		<rect x="281" y="369" class="st3" width="120" height="120"/>
		<rect x="-79" y="489" class="st3" width="120" height="120"/>
		<rect x="41" y="489" class="st3" width="120" height="120"/>
		<rect x="161" y="489" class="st3" width="120" height="120"/>
		<rect x="281" y="489" class="st3" width="120" height="120"/>
		<rect x="-79" y="609" class="st3" width="120" height="120"/>
		<rect x="41" y="609" class="st3" width="120" height="120"/>
		<rect x="161" y="609" class="st3" width="120" height="120"/>
		<rect x="281" y="609" class="st3" width="120" height="120"/>
	</g>
</g>
</svg>
