<?xml version="1.0" encoding="utf-8"?>
<!-- Generator: Adobe Illustrator 19.0.0, SVG Export Plug-In . SVG Version: 6.00 Build 0)  -->
<!DOCTYPE svg PUBLIC "-//W3C//DTD SVG 1.1//EN" "http://www.w3.org/Graphics/SVG/1.1/DTD/svg11.dtd">
<svg version="1.1" id="Layer_1" xmlns="http://www.w3.org/2000/svg" xmlns:xlink="http://www.w3.org/1999/xlink" x="0px" y="0px"
	 viewBox="-79 249 480 480" style="enable-background:new -79 249 480 480;" xml:space="preserve">
<style type="text/css">
	.st0{fill:#FFFFFF;}
	.st1{display:none;}
	.st2{display:inline;}
	.st3{stroke:#0079E9;stroke-width:1.000000e-02;stroke-miterlimit:10;}
</style>
<g>
	<polygon class="st0" points="66,363.7 77,361.3 75.1,353.1 64.1,355.5 	"/>
	<polygon class="st0" points="69.8,380.5 80.8,378.1 78.9,369.9 67.9,372.3 	"/>
	<polygon class="st0" points="58.3,331.1 69.3,328.7 67.4,320.5 56.4,322.9 	"/>
	<polygon class="st0" points="65.4,311.9 63.5,303.7 52.5,306.1 54.4,314.3 	"/>
	<polygon class="st0" points="62.1,347.4 73.1,345 71.2,336.8 60.2,339.2 	"/>
	<polygon class="st0" points="73.6,396.8 84.6,394.4 82.7,386.2 71.7,388.6 	"/>
	<polygon class="st0" points="81.3,430 92.3,427.6 90.4,419.4 79.4,421.8 	"/>
	<polygon class="st0" points="77.5,413.2 88.5,410.8 86.6,402.6 75.6,405 	"/>
	<polygon class="st0" points="131.3,416.6 120.3,416.1 119.8,424.7 130.8,425.2 	"/>
	<polygon class="st0" points="131.7,399.3 120.7,398.8 120.2,407.4 131.2,407.9 	"/>
	<polygon class="st0" points="135.6,314.8 124.6,314.3 124.1,322.9 135.1,323.4 	"/>
	<polygon class="st0" points="132.7,382.5 121.7,382 121.2,390.6 132.2,391.1 	"/>
	<polygon class="st0" points="134.6,331.6 123.6,331.1 123.1,339.7 134.1,340.2 	"/>
	<polygon class="st0" points="136.1,298 125.1,297.5 124.6,306.1 135.6,306.6 	"/>
	<polygon class="st0" points="133.2,365.7 122.2,365.2 121.7,373.8 132.7,374.3 	"/>
	<polygon class="st0" points="134.1,348.9 123.1,348.4 122.6,357 133.6,357.5 	"/>
	<polygon class="st0" points="170.1,424.2 159.5,420.8 157.1,429 167.7,432.4 	"/>
	<polygon class="st0" points="175.4,407.8 164.8,404.4 162.4,412.6 173,416 	"/>
	<polygon class="st0" points="200.9,327.2 190.3,323.8 187.9,332 198.4,335.4 	"/>
	<polygon class="st0" points="206.1,310.9 195.5,307.5 193.1,315.7 203.7,319.1 	"/>
	<polygon class="st0" points="196,343.5 185.4,340.1 183,348.3 193.6,351.7 	"/>
	<polygon class="st0" points="185.5,375.7 174.9,372.3 172.5,380.5 183.1,383.9 	"/>
	<polygon class="st0" points="180.7,391.5 170.1,388.1 167.7,396.3 178.3,399.7 	"/>
	<polygon class="st0" points="190.8,359.4 180.2,356 177.8,364.2 188.4,367.6 	"/>
	<polygon class="st0" points="224.8,413.6 215.7,407.4 210.9,414.6 220,420.8 	"/>
	<polygon class="st0" points="215.2,427.6 206.1,421.4 201.3,428.6 210.4,434.8 	"/>
	<polygon class="st0" points="234,399.2 224.9,393 220.1,400.2 229.2,406.4 	"/>
	<polygon class="st0" points="243.1,385.3 234,379.1 229.2,386.3 238.3,392.5 	"/>
	<polygon class="st0" points="192.2,443 201.3,449.2 206.1,442 197,435.8 	"/>
	<polygon class="st0" points="270.9,342.6 261.8,336.4 257,343.6 266.1,349.8 	"/>
	<polygon class="st0" points="261.3,356.9 252.2,350.7 247.4,357.9 257,363.7 	"/>
	<polygon class="st0" points="252.7,370.9 243.6,364.7 238.8,371.9 247.9,378.1 	"/>
	<polygon class="st0" points="266.1,429.4 259.9,435.2 267.1,443.4 273.3,437.6 	"/>
	<polygon class="st0" points="286.2,426.6 279,418.4 272.8,424.2 280,432.4 	"/>
	<polygon class="st0" points="247.8,460.2 240.6,452 234.4,457.8 241.6,466 	"/>
	<polygon class="st0" points="222,468.8 229.2,477 235.4,471.2 228.2,463 	"/>
	<polygon class="st0" points="253.6,440.4 247.4,446.2 254.6,454.4 260.8,448.6 	"/>
	<polygon class="st0" points="311.7,404 304.5,395.8 298.3,401.6 305.5,409.8 	"/>
	<polygon class="st0" points="298.7,415 291.5,406.8 285.3,412.6 292.5,420.8 	"/>
	<polygon class="st0" points="317,384.8 310.8,390.6 318,398.8 324.2,393 	"/>
	<polygon class="st0" points="274.3,484.7 279.1,494.8 286.8,491 282,480.9 	"/>
	<polygon class="st0" points="256.1,505.8 251.3,495.7 243.6,499.5 248.4,509.6 	"/>
	<polygon class="st0" points="357.8,443.9 350.1,447.7 354.9,457.8 362.6,454 	"/>
	<polygon class="st0" points="335.2,454.9 340,465 347.7,461.2 342.9,451.1 	"/>
	<polygon class="st0" points="319.9,462.6 324.7,472.7 332.4,468.9 327.6,458.8 	"/>
	<polygon class="st0" points="304.5,469.8 309.3,479.9 317,476 312.2,466 	"/>
	<polygon class="st0" points="271.4,498.6 266.6,488.5 258.9,492.3 263.7,502.4 	"/>
	<polygon class="st0" points="289.6,477.5 294.4,487.6 302.1,483.8 297.3,473.7 	"/>
	<path class="st0" d="M233.1,557c-0.3-6.9-1.2-13.7-2.8-20.1c-6.7-29.3-24-53.8-49.4-69.6c-25-15.8-55.2-20.6-84-13.9
		c-6.3,1.5-12,3.4-17.8,5.8l4.3,10.1c5.2-2.4,10.5-3.9,15.8-5.3c26.4-6.2,53.2-1.9,75.8,12.5c22.5,13.9,38.4,36.5,44.6,62.4
		c1.8,8.8,2.7,17.9,2.3,26.8c-6.5-3-13.5-5-20.6-5.8c-2.2-19.8-11.1-38.1-25.4-52c-15.8-15.4-36.9-24-59-24
		c-16.8,0-32.7,4.8-46.6,13.9c-13.5-41.3-52.3-70.1-96.5-71.5l-0.5,11c41.7,1.4,78.2,30.2,88.3,71l1.9,8.6l6.7-5.3
		c13-10.5,29.3-16.3,46.1-16.3c19.2,0,37.5,7.2,51.4,20.6c12.4,11.9,20.2,27.2,22.1,43.9c-32.1,2.7-57.1,29.3-57.1,62.2
		c0,2.9,0,6.2,0.5,9.1c-20.7,9.6-36,27.8-41.3,49.9l11,2.9c4.8-20.2,19.2-36.5,39.4-44.3l4.3-1.9l-1-4.8c-0.9-3.3-1.4-7.2-1.4-11
		c0-28.4,23.1-51.4,51.4-51.4c12,0,23.1,4.3,32.2,11.5l6.7,5.3l1.9-8.6c7.2-28.3,32.6-48.4,61.9-49.4l-0.5-11
		C270.5,519.2,246.1,534.2,233.1,557z"/>
</g>
<g class="st1">
	<g class="st2">
		<rect x="-79" y="249" class="st3" width="120" height="120"/>
		<rect x="41" y="249" class="st3" width="120" height="120"/>
		<rect x="161" y="249" class="st3" width="120" height="120"/>
		<rect x="281" y="249" class="st3" width="120" height="120"/>
		<rect x="-79" y="369" class="st3" width="120" height="120"/>
		<rect x="41" y="369" class="st3" width="120" height="120"/>
		<rect x="161" y="369" class="st3" width="120" height="120"/>
		<rect x="281" y="369" class="st3" width="120" height="120"/>
		<rect x="-79" y="489" class="st3" width="120" height="120"/>
		<rect x="41" y="489" class="st3" width="120" height="120"/>
		<rect x="161" y="489" class="st3" width="120" height="120"/>
		<rect x="281" y="489" class="st3" width="120" height="120"/>
		<rect x="-79" y="609" class="st3" width="120" height="120"/>
		<rect x="41" y="609" class="st3" width="120" height="120"/>
		<rect x="161" y="609" class="st3" width="120" height="120"/>
		<rect x="281" y="609" class="st3" width="120" height="120"/>
	</g>
</g>
</svg>
