<?xml version="1.0" encoding="utf-8"?>
<!-- Generator: Adobe Illustrator 19.0.0, SVG Export Plug-In . SVG Version: 6.00 Build 0)  -->
<!DOCTYPE svg PUBLIC "-//W3C//DTD SVG 1.1//EN" "http://www.w3.org/Graphics/SVG/1.1/DTD/svg11.dtd">
<svg version="1.1" id="Layer_1" xmlns="http://www.w3.org/2000/svg" xmlns:xlink="http://www.w3.org/1999/xlink" x="0px" y="0px"
	 viewBox="-264.5 506.9 90.5 59.4" style="enable-background:new -264.5 506.9 90.5 59.4;" xml:space="preserve">
<style type="text/css">
	.st0{fill:#FFFFFF;}
</style>
<g>
	<path class="st0" d="M-175.7,547.1c0-0.3,0-0.6-0.2-0.8c0-0.1-7.2-9.5-17.2-18.8c-13.5-12.5-25.5-18.9-35.6-18.9
		c-4.2,0-8.1,1.1-11.5,3.3c-16.9,10.9-19.9,21.4-20,21.8c0,0.1,0,0.1,0,0.2c-1.4,3.7-2.6,9.1-0.8,14.6c1.9,5.6,6.5,9.9,13.8,12.7
		c4.9,1.9,10.4,1.6,14.6-1c3.3-2.1,5.4-5.2,5.8-8.8c0.4-3.2,1-5,2-5.5s2.7,0.5,4,1.3c3.2,2.2,24.7,17,24.9,17.1
		c0.2,0.1,0.4,0.2,0.6,0.2c0,0,0.1,0,0.3,0l2.7-0.5c0,0,0,0,0,0C-189.9,563.9-178.9,562.6-175.7,547.1z M-219.6,545.5
		c-2.6-1.7-4.5-2.1-6-1.4c-2.2,1-2.8,4.3-3.1,7.1c-0.4,3-2.1,5.6-4.9,7.3c-3.7,2.3-8.5,2.6-12.9,0.9c-6.7-2.6-10.9-6.4-12.6-11.4
		c-1.9-5.8,0.1-11.9,1.5-15.1c1.3-2.2,4.7-6.3,11.8-6.3c15.4,0,36.1,19.1,51.2,35.7l-0.4,0.1C-197.7,560.5-216.6,547.5-219.6,545.5z
		 M-192.3,562c-22.3-24.8-40.3-37.4-53.5-37.4c-3.4,0-6.1,0.9-8.1,1.9c2.9-3.7,7.5-8.3,14.9-13.1c3.1-2,6.6-3,10.4-3
		c11.9,0,25.2,10,34.2,18.4c8.7,8.2,15.3,16.4,16.7,18.2C-180.8,560.6-190.1,561.9-192.3,562z"/>
	<path class="st0" d="M-213.7,516.7c-0.4-0.3-1-0.2-1.3,0.1l-10.7,10.8c-0.2,0.2-0.3,0.5-0.3,0.8c0,0.3,0.2,0.5,0.4,0.7l5,3.6
		c0.2,0.1,0.4,0.2,0.6,0.2s0.5-0.1,0.7-0.3l10.2-11.3c0.2-0.2,0.3-0.5,0.3-0.8s-0.2-0.5-0.4-0.7L-213.7,516.7z M-220.2,530.5
		l-3.3-2.4l9.3-9.3l2.9,2L-220.2,530.5z"/>
</g>
<path class="st0" d="M-248,551.9l-2.4,3c-0.8-0.7-1.7-1.5-2.3-2.1l2.8-2.5C-249.4,550.7-248.8,551.4-248,551.9z M-251.5,548.2
	l-3.2,2c-0.6-1-1.1-1.9-1.5-3l3.5-1.3C-252.4,546.7-252.1,547.4-251.5,548.2z M-253.4,543.5l-3.6,0.5c-0.1-0.9-0.3-2.1-0.2-3.1
	l3.7,0.1C-253.5,541.9-253.3,542.7-253.4,543.5z M-253.2,538.4l-3.7-0.6c0.1-1,0.4-2,0.6-2.9l3.7,1
	C-252.9,536.6-253,537.6-253.2,538.4z"/>
</svg>
