<?xml version="1.0" encoding="utf-8"?>
<!-- Generator: Adobe Illustrator 19.0.0, SVG Export Plug-In . SVG Version: 6.00 Build 0)  -->
<!DOCTYPE svg PUBLIC "-//W3C//DTD SVG 1.1//EN" "http://www.w3.org/Graphics/SVG/1.1/DTD/svg11.dtd">
<svg version="1.1" id="Layer_1" xmlns:sketch="http://www.bohemiancoding.com/sketch/ns"
	 xmlns="http://www.w3.org/2000/svg" xmlns:xlink="http://www.w3.org/1999/xlink" x="0px" y="0px" viewBox="-294 524 50 50"
	 style="enable-background:new -294 524 50 50;" xml:space="preserve">
<style type="text/css">
	.st0{fill:#FFFFFF;}
</style>
<title></title>
<g>
	<path class="st0" d="M-263.4,544.1c-2.5,0-3.6,1.4-4.2,2.4v-2.1h-4.7c0.1,1.4,0,14.5,0,14.5h4.7v-8.1c0-0.4,0-0.9,0.2-1.2
		c0.3-0.9,1.1-1.8,2.4-1.8c1.7,0,2.4,1.3,2.4,3.3v7.8h4.7l0-8.3C-258,546.2-260.3,544.1-263.4,544.1z"/>
	<rect x="-280" y="544.1" class="st0" width="4.7" height="14.5"/>
	<path class="st0" d="M-277.3,537c-1.6,0-2.7,1.1-2.7,2.5c0,1.4,1,2.5,2.6,2.5h0c1.6,0,2.7-1.1,2.7-2.5
		C-274.7,538.1-275.7,537-277.3,537z"/>
	<path class="st0" d="M-269,524c-13.8,0-25,11.2-25,25s11.2,25,25,25s25-11.2,25-25S-255.2,524-269,524z M-269,571
		c-12.2,0-22-9.8-22-22s9.8-22,22-22s22,9.8,22,22S-256.8,571-269,571z"/>
</g>
</svg>
