<?xml version="1.0" encoding="utf-8"?>
<!-- Generator: Adobe Illustrator 19.0.0, SVG Export Plug-In . SVG Version: 6.00 Build 0)  -->
<!DOCTYPE svg PUBLIC "-//W3C//DTD SVG 1.1//EN" "http://www.w3.org/Graphics/SVG/1.1/DTD/svg11.dtd">
<svg version="1.1" id="Layer_1" xmlns:sketch="http://www.bohemiancoding.com/sketch/ns"
	 xmlns="http://www.w3.org/2000/svg" xmlns:xlink="http://www.w3.org/1999/xlink" x="0px" y="0px" viewBox="-294 524 50 50"
	 style="enable-background:new -294 524 50 50;" xml:space="preserve">
<style type="text/css">
	.st0{fill:#FFFFFF;}
</style>
<title></title>
<g>
	<path class="st0" d="M-269.3,544.5c0-0.2,0-0.3,0-0.4C-269.3,544.2-269.3,544.3-269.3,544.5z"/>
	<path class="st0" d="M-269.4,544C-269.4,544-269.4,543.9-269.4,544C-269.4,543.9-269.4,544-269.4,544z"/>
	<path class="st0" d="M-269.3,544.5C-269.3,544.5-269.3,544.5-269.3,544.5C-269.3,544.5-269.3,544.5-269.3,544.5z"/>
	<path class="st0" d="M-269.3,544.6C-269.3,544.5-269.3,544.5-269.3,544.6C-269.3,544.5-269.3,544.6-269.3,544.6z"/>
	<path class="st0" d="M-258.7,542c-1.4,0.5-1.5,0.4-0.9-0.3c0.5-0.5,1.1-1.5,1.1-1.8c0-0.1-0.2,0-0.5,0.2c-0.3,0.2-0.9,0.4-1.4,0.6
		l-0.9,0.3l-0.8-0.6c-0.4-0.3-1-0.6-1.4-0.7c-0.8-0.2-2.1-0.2-2.8,0.1c-2,0.8-3.2,2.7-3.1,4.8l0,0.8l-0.8-0.1
		c-2.9-0.4-5.4-1.7-7.6-3.9l-1-1.1l-0.3,0.8c-0.6,1.8-0.2,3.7,1,5c0.6,0.7,0.5,0.8-0.6,0.4c-0.4-0.1-0.7-0.2-0.7-0.2
		c-0.1,0.1,0.3,1.6,0.6,2.2c0.4,0.8,1.3,1.7,2.2,2.1l0.8,0.4l-0.9,0c-0.9,0-0.9,0-0.8,0.4c0.3,1.1,1.6,2.2,3,2.8l1,0.4l-0.9,0.5
		c-1.3,0.8-2.8,1.2-4.3,1.2c-0.7,0-1.3,0.1-1.3,0.1c0,0.2,1.9,1.1,3.1,1.5c3.4,1.1,7.4,0.6,10.4-1.2c2.1-1.3,4.3-4,5.3-6.5
		c0.5-1.4,1.1-3.8,1.1-5c0-0.8,0-0.9,0.9-1.8c0.5-0.5,1-1.1,1.1-1.3C-257.9,541.7-257.9,541.7-258.7,542z"/>
	<path class="st0" d="M-269,524c-13.8,0-25,11.2-25,25s11.2,25,25,25s25-11.2,25-25S-255.2,524-269,524z M-269,571
		c-12.2,0-22-9.8-22-22s9.8-22,22-22s22,9.8,22,22S-256.8,571-269,571z"/>
	<path class="st0" d="M-269.4,543.7C-269.4,543.6-269.4,543.6-269.4,543.7L-269.4,543.7z"/>
	<path class="st0" d="M-269.4,543.9c0-0.1,0-0.1,0-0.2C-269.4,543.8-269.4,543.8-269.4,543.9z"/>
</g>
</svg>
