<?xml version="1.0" encoding="utf-8"?>
<!-- Generator: Adobe Illustrator 19.0.0, SVG Export Plug-In . SVG Version: 6.00 Build 0)  -->
<!DOCTYPE svg PUBLIC "-//W3C//DTD SVG 1.1//EN" "http://www.w3.org/Graphics/SVG/1.1/DTD/svg11.dtd">
<svg version="1.1" id="Layer_1" xmlns:sketch="http://www.bohemiancoding.com/sketch/ns"
	 xmlns="http://www.w3.org/2000/svg" xmlns:xlink="http://www.w3.org/1999/xlink" x="0px" y="0px" viewBox="-294 524 50 50"
	 style="enable-background:new -294 524 50 50;" xml:space="preserve">
<style type="text/css">
	.st0{fill:#FFFFFF;}
</style>
<title></title>
<g>
	<polygon class="st0" points="-281,541 -281,556 -272.3,549.5 	"/>
	<polygon class="st0" points="-269,552.6 -271.1,550.6 -281,557 -257,557 -266.9,550.6 	"/>
	<polygon class="st0" points="-257.7,541 -280.3,541 -269,550.1 	"/>
	<polygon class="st0" points="-257,556 -257,541 -265.7,549.5 	"/>
	<path class="st0" d="M-269,524c-13.8,0-25,11.2-25,25s11.2,25,25,25s25-11.2,25-25S-255.2,524-269,524z M-269,571
		c-12.2,0-22-9.8-22-22s9.8-22,22-22s22,9.8,22,22S-256.8,571-269,571z"/>
</g>
</svg>
